<svg xmlns="http://www.w3.org/2000/svg" width="24" height="24" viewBox="0 0 24 24">
    <g fill="#0D2535" fill-rule="evenodd">
        <path d="M23.347 3.393a.502.502 0 0 0-.613.353l-.331 1.216H4.426l.359-1.687a.486.486 0 0 0 0-.208 1.354 1.354 0 0 0-1.321-1.068H.5a.5.5 0 0 0 0 1h2.964c.136 0 .258.08.316.196l-.461 2.163v.008a.477.477 0 0 0 0 .206l.448 2a.501.501 0 0 0 .598.38.502.502 0 0 0 .378-.598L4.432 5.96H22.13l-1.711 6.287c-.038.16-.177.27-.395.273L6.27 14.008l-.22-.944a.5.5 0 0 0-.975.225l.29 1.25-.535 1.909a1.201 1.201 0 0 0 1.183 1.442h14.276a.5.5 0 1 0 0-1H6.013a.206.206 0 0 1-.161-.077c-.023-.027-.058-.086-.05-.13l.464-1.669 13.81-1.497c.63 0 1.17-.427 1.312-1.022l2.31-8.489a.5.5 0 0 0-.351-.613M6.85 21.883a1.014 1.014 0 0 1-1.018-1.01c0-.555.456-1.01 1.018-1.01.56 0 1.015.455 1.015 1.01 0 .558-.455 1.01-1.015 1.01m0-3.02a2.017 2.017 0 0 0-2.018 2.01c0 1.109.906 2.01 2.018 2.01a2.014 2.014 0 0 0 2.015-2.01c0-1.107-.904-2.01-2.015-2.01M18.773 21.883a1.014 1.014 0 0 1-1.017-1.01c0-.555.456-1.01 1.017-1.01.56 0 1.016.455 1.016 1.01 0 .558-.456 1.01-1.016 1.01m0-3.02a2.016 2.016 0 0 0-2.017 2.01c0 1.109.905 2.01 2.017 2.01a2.015 2.015 0 0 0 2.016-2.01c0-1.107-.905-2.01-2.016-2.01"/>
        <path d="M9.1 9.962a.5.5 0 0 0 0-1H2.028a.5.5 0 1 0 0 1H9.1zM8.6 11.463a.5.5 0 0 0-.5-.5H1.028a.5.5 0 1 0 0 1H8.1a.5.5 0 0 0 .5-.5"/>
    </g>
</svg>
